<?xml version="1.0" standalone="no"?>
<!DOCTYPE svg PUBLIC "-//W3C//DTD SVG 20010904//EN"
 "http://www.w3.org/TR/2001/REC-SVG-20010904/DTD/svg10.dtd">
<svg version="1.0" xmlns="http://www.w3.org/2000/svg"
 width="64.000000pt" height="64.000000pt" viewBox="0 0 64.000000 64.000000"
 preserveAspectRatio="xMidYMid meet">

<g transform="translate(0.000000,64.000000) scale(0.100000,-0.100000)"
fill="#000000" stroke="none">
<path d="M225 528 c-43 -24 -65 -52 -65 -84 0 -24 -8 -38 -35 -58 -29 -23 -35
-33 -35 -66 0 -33 6 -44 35 -67 27 -21 35 -35 35 -60 0 -24 9 -39 37 -62 44
-36 51 -37 92 -13 30 16 32 16 62 0 42 -24 53 -23 94 13 26 23 35 39 35 63 0
24 8 38 35 59 29 23 35 34 35 67 0 33 -6 43 -35 66 -27 20 -35 34 -35 58 0 34
-23 62 -69 86 -19 10 -29 9 -58 -7 -32 -17 -35 -17 -64 0 -36 20 -37 20 -64 5z
m64 -25 c29 -17 32 -17 65 1 34 18 36 18 68 -1 21 -12 34 -28 36 -44 6 -54 14
-69 42 -84 26 -13 30 -21 30 -55 0 -32 -5 -43 -27 -57 -37 -23 -43 -32 -43
-70 0 -22 -8 -38 -26 -52 -32 -26 -44 -26 -83 -3 -30 16 -32 16 -62 0 -39 -23
-45 -22 -80 3 -22 15 -29 29 -29 52 0 38 -6 47 -42 70 -23 14 -28 25 -28 57 0
33 4 42 29 54 32 17 41 34 41 77 0 22 8 34 33 49 39 24 38 24 76 3z"/>
<path d="M259 381 c-39 -40 -39 -82 0 -122 20 -20 39 -29 61 -29 43 0 90 47
90 90 0 43 -47 90 -90 90 -22 0 -41 -9 -61 -29z m111 -11 c11 -11 20 -33 20
-50 0 -61 -77 -93 -120 -50 -43 43 -11 120 50 120 17 0 39 -9 50 -20z"/>
</g>
</svg>
